<svg xmlns="http://www.w3.org/2000/svg" width="24.687" height="25.544" viewBox="0 0 24.687 25.544">
  <g id="Group_42" data-name="Group 42" transform="translate(-333 -741.219)">
    <g id="Group_40" data-name="Group 40">
      <path id="Subtraction_10" data-name="Subtraction 10" d="M-1980.562-2371.237a12.524,12.524,0,0,1-9.437-4.351l2.665-4.226c-.1-.173-.2-.345-.277-.51a7.806,7.806,0,0,0,7.05,4.329,7.4,7.4,0,0,0,5.339-2c.141-.139.279-.289.41-.445l2.529,4.21A11.961,11.961,0,0,1-1980.562-2371.237Z" transform="translate(2326.153 3138)" fill="#4285f4"/>
      <g id="Group_39" data-name="Group 39">
        <g id="Group_38" data-name="Group 38">
          <path id="Subtraction_2" data-name="Subtraction 2" d="M-1968.274-2380.707h0a6.591,6.591,0,0,0-4.937-2,7.842,7.842,0,0,0-5.072,1.907l-3.063-3.612.072-.062.045-.038a12.465,12.465,0,0,1,8.018-2.953,12.04,12.04,0,0,1,8.393,3.255l-3.455,3.5Z" transform="translate(2318.802 3128.687)" fill="#ea4335"/>
          <path id="Subtraction_7" data-name="Subtraction 7" d="M-1986.847-2369.859h0a12.817,12.817,0,0,1-3.152-8.42,12.839,12.839,0,0,1,4.455-9.719l3.06,3.609a8.028,8.028,0,0,0-2.824,6.11,8.219,8.219,0,0,0,1.127,4.2l-2.664,4.225Z" transform="translate(2323 3132.271)" fill="#fbbc05"/>
        </g>
      </g>
    </g>
    <path id="Subtraction_11" data-name="Subtraction 11" d="M-1969.132-2365.453h0l-2.528-4.208a6.184,6.184,0,0,0,1.41-3.062h-7.159v-4.257h11.85a4.952,4.952,0,0,0,.123,1,4.971,4.971,0,0,1,.123,1,12.672,12.672,0,0,1-3.818,9.524Z" transform="translate(2323 3129.219)" fill="#34a853"/>
  </g>
</svg>
